<?xml version="1.0" encoding="UTF-8"?>
<svg xmlns="http://www.w3.org/2000/svg" xmlns:xlink="http://www.w3.org/1999/xlink"
     width="6428.19mm" height="3211.59mm"
     viewBox="0 0 6428.19 3211.59">
  <title>Flat gores 200cm yellow</title>
  <text x="20.0" y="18" font-family="Helvetica,Arial,sans-serif" font-size="10" fill="#222">Balloon 200cm — 8 gores — yellow (C0 M0 Y100 K0) — gore length 314.2cm, max width 78.5cm</text>
  <path d="M 412.699 40.000 L 425.034 71.416 L 437.357 102.832 L 449.655 134.248 L 461.917 165.664 L 474.131 197.080 L 486.284 228.496 L 498.364 259.911 L 510.359 291.327 L 522.259 322.743 L 534.050 354.159 L 545.721 385.575 L 557.261 416.991 L 568.659 448.407 L 579.902 479.823 L 590.981 511.239 L 601.883 542.655 L 612.599 574.071 L 623.118 605.487 L 633.429 636.903 L 643.522 668.319 L 653.387 699.734 L 663.015 731.150 L 672.396 762.566 L 681.520 793.982 L 690.379 825.398 L 698.964 856.814 L 707.267 888.230 L 715.279 919.646 L 722.992 951.062 L 730.399 982.478 L 737.493 1013.894 L 744.266 1045.310 L 750.712 1076.726 L 756.824 1108.142 L 762.597 1139.557 L 768.024 1170.973 L 773.100 1202.389 L 777.821 1233.805 L 782.182 1265.221 L 786.178 1296.637 L 789.806 1328.053 L 793.061 1359.469 L 795.941 1390.885 L 798.442 1422.301 L 800.563 1453.717 L 802.302 1485.133 L 803.655 1516.549 L 804.623 1547.964 L 805.204 1579.380 L 805.398 1610.796 L 805.204 1642.212 L 804.623 1673.628 L 803.655 1705.044 L 802.302 1736.460 L 800.563 1767.876 L 798.442 1799.292 L 795.941 1830.708 L 793.061 1862.124 L 789.806 1893.540 L 786.178 1924.956 L 782.182 1956.372 L 777.821 1987.787 L 773.100 2019.203 L 768.024 2050.619 L 762.597 2082.035 L 756.824 2113.451 L 750.712 2144.867 L 744.266 2176.283 L 737.493 2207.699 L 730.399 2239.115 L 722.992 2270.531 L 715.279 2301.947 L 707.267 2333.363 L 698.964 2364.779 L 690.379 2396.194 L 681.520 2427.610 L 672.396 2459.026 L 663.015 2490.442 L 653.387 2521.858 L 643.522 2553.274 L 633.429 2584.690 L 623.118 2616.106 L 612.599 2647.522 L 601.883 2678.938 L 590.981 2710.354 L 579.902 2741.770 L 568.659 2773.186 L 557.261 2804.602 L 545.721 2836.017 L 534.050 2867.433 L 522.259 2898.849 L 510.359 2930.265 L 498.364 2961.681 L 486.284 2993.097 L 474.131 3024.513 L 461.917 3055.929 L 449.655 3087.345 L 437.357 3118.761 L 425.034 3150.177 L 412.699 3181.593 L 412.699 3181.593 L 400.364 3150.177 L 388.041 3118.761 L 375.743 3087.345 L 363.481 3055.929 L 351.267 3024.513 L 339.115 2993.097 L 327.034 2961.681 L 315.039 2930.265 L 303.140 2898.849 L 291.348 2867.433 L 279.677 2836.017 L 268.137 2804.602 L 256.739 2773.186 L 245.496 2741.770 L 234.417 2710.354 L 223.515 2678.938 L 212.799 2647.522 L 202.280 2616.106 L 191.969 2584.690 L 181.876 2553.274 L 172.011 2521.858 L 162.383 2490.442 L 153.003 2459.026 L 143.878 2427.610 L 135.019 2396.194 L 126.434 2364.779 L 118.131 2333.363 L 110.119 2301.947 L 102.406 2270.531 L 94.999 2239.115 L 87.905 2207.699 L 81.132 2176.283 L 74.686 2144.867 L 68.574 2113.451 L 62.802 2082.035 L 57.374 2050.619 L 52.298 2019.203 L 47.577 1987.787 L 43.216 1956.372 L 39.220 1924.956 L 35.593 1893.540 L 32.337 1862.124 L 29.457 1830.708 L 26.956 1799.292 L 24.835 1767.876 L 23.097 1736.460 L 21.743 1705.044 L 20.775 1673.628 L 20.194 1642.212 L 20.000 1610.796 L 20.194 1579.380 L 20.775 1547.964 L 21.743 1516.549 L 23.097 1485.133 L 24.835 1453.717 L 26.956 1422.301 L 29.457 1390.885 L 32.337 1359.469 L 35.593 1328.053 L 39.220 1296.637 L 43.216 1265.221 L 47.577 1233.805 L 52.298 1202.389 L 57.374 1170.973 L 62.802 1139.557 L 68.574 1108.142 L 74.686 1076.726 L 81.132 1045.310 L 87.905 1013.894 L 94.999 982.478 L 102.406 951.062 L 110.119 919.646 L 118.131 888.230 L 126.434 856.814 L 135.019 825.398 L 143.878 793.982 L 153.003 762.566 L 162.383 731.150 L 172.011 699.734 L 181.876 668.319 L 191.969 636.903 L 202.280 605.487 L 212.799 574.071 L 223.515 542.655 L 234.417 511.239 L 245.496 479.823 L 256.739 448.407 L 268.137 416.991 L 279.677 385.575 L 291.348 354.159 L 303.140 322.743 L 315.039 291.327 L 327.034 259.911 L 339.115 228.496 L 351.267 197.080 L 363.481 165.664 L 375.743 134.248 L 388.041 102.832 L 400.364 71.416 L 412.699 40.000 Z" fill="#ffe600" fill-opacity="0.35" stroke="#222" stroke-width="0.6"/>
  <text x="412.69908169872417" y="1610.7963267948967" font-family="Helvetica,Arial,sans-serif" font-size="12" fill="#222" text-anchor="middle">gore 1/8</text>
  <path d="M 1213.097 40.000 L 1225.432 71.416 L 1237.755 102.832 L 1250.053 134.248 L 1262.315 165.664 L 1274.529 197.080 L 1286.682 228.496 L 1298.762 259.911 L 1310.758 291.327 L 1322.657 322.743 L 1334.448 354.159 L 1346.119 385.575 L 1357.659 416.991 L 1369.057 448.407 L 1380.300 479.823 L 1391.379 511.239 L 1402.281 542.655 L 1412.997 574.071 L 1423.516 605.487 L 1433.827 636.903 L 1443.920 668.319 L 1453.785 699.734 L 1463.413 731.150 L 1472.794 762.566 L 1481.918 793.982 L 1490.777 825.398 L 1499.363 856.814 L 1507.665 888.230 L 1515.677 919.646 L 1523.390 951.062 L 1530.797 982.478 L 1537.891 1013.894 L 1544.664 1045.310 L 1551.110 1076.726 L 1557.222 1108.142 L 1562.995 1139.557 L 1568.422 1170.973 L 1573.499 1202.389 L 1578.220 1233.805 L 1582.580 1265.221 L 1586.576 1296.637 L 1590.204 1328.053 L 1593.459 1359.469 L 1596.339 1390.885 L 1598.841 1422.301 L 1600.962 1453.717 L 1602.700 1485.133 L 1604.054 1516.549 L 1605.021 1547.964 L 1605.603 1579.380 L 1605.796 1610.796 L 1605.603 1642.212 L 1605.021 1673.628 L 1604.054 1705.044 L 1602.700 1736.460 L 1600.962 1767.876 L 1598.841 1799.292 L 1596.339 1830.708 L 1593.459 1862.124 L 1590.204 1893.540 L 1586.576 1924.956 L 1582.580 1956.372 L 1578.220 1987.787 L 1573.499 2019.203 L 1568.422 2050.619 L 1562.995 2082.035 L 1557.222 2113.451 L 1551.110 2144.867 L 1544.664 2176.283 L 1537.891 2207.699 L 1530.797 2239.115 L 1523.390 2270.531 L 1515.677 2301.947 L 1507.665 2333.363 L 1499.363 2364.779 L 1490.777 2396.194 L 1481.918 2427.610 L 1472.794 2459.026 L 1463.413 2490.442 L 1453.785 2521.858 L 1443.920 2553.274 L 1433.827 2584.690 L 1423.516 2616.106 L 1412.997 2647.522 L 1402.281 2678.938 L 1391.379 2710.354 L 1380.300 2741.770 L 1369.057 2773.186 L 1357.659 2804.602 L 1346.119 2836.017 L 1334.448 2867.433 L 1322.657 2898.849 L 1310.758 2930.265 L 1298.762 2961.681 L 1286.682 2993.097 L 1274.529 3024.513 L 1262.315 3055.929 L 1250.053 3087.345 L 1237.755 3118.761 L 1225.432 3150.177 L 1213.097 3181.593 L 1213.097 3181.593 L 1200.762 3150.177 L 1188.439 3118.761 L 1176.141 3087.345 L 1163.879 3055.929 L 1151.666 3024.513 L 1139.513 2993.097 L 1127.433 2961.681 L 1115.437 2930.265 L 1103.538 2898.849 L 1091.747 2867.433 L 1080.075 2836.017 L 1068.535 2804.602 L 1057.138 2773.186 L 1045.894 2741.770 L 1034.816 2710.354 L 1023.913 2678.938 L 1013.197 2647.522 L 1002.679 2616.106 L 992.368 2584.690 L 982.275 2553.274 L 972.409 2521.858 L 962.781 2490.442 L 953.401 2459.026 L 944.276 2427.610 L 935.417 2396.194 L 926.832 2364.779 L 918.529 2333.363 L 910.517 2301.947 L 902.804 2270.531 L 895.397 2239.115 L 888.303 2207.699 L 881.530 2176.283 L 875.085 2144.867 L 868.972 2113.451 L 863.200 2082.035 L 857.772 2050.619 L 852.696 2019.203 L 847.975 1987.787 L 843.614 1956.372 L 839.618 1924.956 L 835.991 1893.540 L 832.736 1862.124 L 829.856 1830.708 L 827.354 1799.292 L 825.233 1767.876 L 823.495 1736.460 L 822.141 1705.044 L 821.173 1673.628 L 820.592 1642.212 L 820.398 1610.796 L 820.592 1579.380 L 821.173 1547.964 L 822.141 1516.549 L 823.495 1485.133 L 825.233 1453.717 L 827.354 1422.301 L 829.856 1390.885 L 832.736 1359.469 L 835.991 1328.053 L 839.618 1296.637 L 843.614 1265.221 L 847.975 1233.805 L 852.696 1202.389 L 857.772 1170.973 L 863.200 1139.557 L 868.972 1108.142 L 875.085 1076.726 L 881.530 1045.310 L 888.303 1013.894 L 895.397 982.478 L 902.804 951.062 L 910.517 919.646 L 918.529 888.230 L 926.832 856.814 L 935.417 825.398 L 944.276 793.982 L 953.401 762.566 L 962.781 731.150 L 972.409 699.734 L 982.275 668.319 L 992.368 636.903 L 1002.679 605.487 L 1013.197 574.071 L 1023.913 542.655 L 1034.816 511.239 L 1045.894 479.823 L 1057.138 448.407 L 1068.535 416.991 L 1080.075 385.575 L 1091.747 354.159 L 1103.538 322.743 L 1115.437 291.327 L 1127.433 259.911 L 1139.513 228.496 L 1151.666 197.080 L 1163.879 165.664 L 1176.141 134.248 L 1188.439 102.832 L 1200.762 71.416 L 1213.097 40.000 Z" fill="#ffe600" fill-opacity="0.35" stroke="#222" stroke-width="0.6"/>
  <text x="1213.0972450961726" y="1610.7963267948967" font-family="Helvetica,Arial,sans-serif" font-size="12" fill="#222" text-anchor="middle">gore 2/8</text>
  <path d="M 2013.495 40.000 L 2025.830 71.416 L 2038.153 102.832 L 2050.452 134.248 L 2062.714 165.664 L 2074.927 197.080 L 2087.080 228.496 L 2099.160 259.911 L 2111.156 291.327 L 2123.055 322.743 L 2134.846 354.159 L 2146.517 385.575 L 2158.058 416.991 L 2169.455 448.407 L 2180.699 479.823 L 2191.777 511.239 L 2202.680 542.655 L 2213.396 574.071 L 2223.914 605.487 L 2234.225 636.903 L 2244.318 668.319 L 2254.183 699.734 L 2263.811 731.150 L 2273.192 762.566 L 2282.316 793.982 L 2291.176 825.398 L 2299.761 856.814 L 2308.063 888.230 L 2316.075 919.646 L 2323.789 951.062 L 2331.196 982.478 L 2338.289 1013.894 L 2345.062 1045.310 L 2351.508 1076.726 L 2357.620 1108.142 L 2363.393 1139.557 L 2368.820 1170.973 L 2373.897 1202.389 L 2378.618 1233.805 L 2382.978 1265.221 L 2386.974 1296.637 L 2390.602 1328.053 L 2393.857 1359.469 L 2396.737 1390.885 L 2399.239 1422.301 L 2401.360 1453.717 L 2403.098 1485.133 L 2404.452 1516.549 L 2405.420 1547.964 L 2406.001 1579.380 L 2406.194 1610.796 L 2406.001 1642.212 L 2405.420 1673.628 L 2404.452 1705.044 L 2403.098 1736.460 L 2401.360 1767.876 L 2399.239 1799.292 L 2396.737 1830.708 L 2393.857 1862.124 L 2390.602 1893.540 L 2386.974 1924.956 L 2382.978 1956.372 L 2378.618 1987.787 L 2373.897 2019.203 L 2368.820 2050.619 L 2363.393 2082.035 L 2357.620 2113.451 L 2351.508 2144.867 L 2345.062 2176.283 L 2338.289 2207.699 L 2331.196 2239.115 L 2323.789 2270.531 L 2316.075 2301.947 L 2308.063 2333.363 L 2299.761 2364.779 L 2291.176 2396.194 L 2282.316 2427.610 L 2273.192 2459.026 L 2263.811 2490.442 L 2254.183 2521.858 L 2244.318 2553.274 L 2234.225 2584.690 L 2223.914 2616.106 L 2213.396 2647.522 L 2202.680 2678.938 L 2191.777 2710.354 L 2180.699 2741.770 L 2169.455 2773.186 L 2158.058 2804.602 L 2146.517 2836.017 L 2134.846 2867.433 L 2123.055 2898.849 L 2111.156 2930.265 L 2099.160 2961.681 L 2087.080 2993.097 L 2074.927 3024.513 L 2062.714 3055.929 L 2050.452 3087.345 L 2038.153 3118.761 L 2025.830 3150.177 L 2013.495 3181.593 L 2013.495 3181.593 L 2001.160 3150.177 L 1988.838 3118.761 L 1976.539 3087.345 L 1964.277 3055.929 L 1952.064 3024.513 L 1939.911 2993.097 L 1927.831 2961.681 L 1915.835 2930.265 L 1903.936 2898.849 L 1892.145 2867.433 L 1880.473 2836.017 L 1868.933 2804.602 L 1857.536 2773.186 L 1846.292 2741.770 L 1835.214 2710.354 L 1824.311 2678.938 L 1813.595 2647.522 L 1803.077 2616.106 L 1792.766 2584.690 L 1782.673 2553.274 L 1772.807 2521.858 L 1763.180 2490.442 L 1753.799 2459.026 L 1744.674 2427.610 L 1735.815 2396.194 L 1727.230 2364.779 L 1718.927 2333.363 L 1710.916 2301.947 L 1703.202 2270.531 L 1695.795 2239.115 L 1688.702 2207.699 L 1681.929 2176.283 L 1675.483 2144.867 L 1669.371 2113.451 L 1663.598 2082.035 L 1658.171 2050.619 L 1653.094 2019.203 L 1648.373 1987.787 L 1644.012 1956.372 L 1640.016 1924.956 L 1636.389 1893.540 L 1633.134 1862.124 L 1630.254 1830.708 L 1627.752 1799.292 L 1625.631 1767.876 L 1623.893 1736.460 L 1622.539 1705.044 L 1621.571 1673.628 L 1620.990 1642.212 L 1620.796 1610.796 L 1620.990 1579.380 L 1621.571 1547.964 L 1622.539 1516.549 L 1623.893 1485.133 L 1625.631 1453.717 L 1627.752 1422.301 L 1630.254 1390.885 L 1633.134 1359.469 L 1636.389 1328.053 L 1640.016 1296.637 L 1644.012 1265.221 L 1648.373 1233.805 L 1653.094 1202.389 L 1658.171 1170.973 L 1663.598 1139.557 L 1669.371 1108.142 L 1675.483 1076.726 L 1681.929 1045.310 L 1688.702 1013.894 L 1695.795 982.478 L 1703.202 951.062 L 1710.916 919.646 L 1718.927 888.230 L 1727.230 856.814 L 1735.815 825.398 L 1744.674 793.982 L 1753.799 762.566 L 1763.180 731.150 L 1772.807 699.734 L 1782.673 668.319 L 1792.766 636.903 L 1803.077 605.487 L 1813.595 574.071 L 1824.311 542.655 L 1835.214 511.239 L 1846.292 479.823 L 1857.536 448.407 L 1868.933 416.991 L 1880.473 385.575 L 1892.145 354.159 L 1903.936 322.743 L 1915.835 291.327 L 1927.831 259.911 L 1939.911 228.496 L 1952.064 197.080 L 1964.277 165.664 L 1976.539 134.248 L 1988.838 102.832 L 2001.160 71.416 L 2013.495 40.000 Z" fill="#ffe600" fill-opacity="0.35" stroke="#222" stroke-width="0.6"/>
  <text x="2013.4954084936207" y="1610.7963267948967" font-family="Helvetica,Arial,sans-serif" font-size="12" fill="#222" text-anchor="middle">gore 3/8</text>
  <path d="M 2813.894 40.000 L 2826.229 71.416 L 2838.551 102.832 L 2850.850 134.248 L 2863.112 165.664 L 2875.325 197.080 L 2887.478 228.496 L 2899.558 259.911 L 2911.554 291.327 L 2923.453 322.743 L 2935.244 354.159 L 2946.916 385.575 L 2958.456 416.991 L 2969.853 448.407 L 2981.097 479.823 L 2992.175 511.239 L 3003.078 542.655 L 3013.794 574.071 L 3024.312 605.487 L 3034.623 636.903 L 3044.716 668.319 L 3054.582 699.734 L 3064.209 731.150 L 3073.590 762.566 L 3082.715 793.982 L 3091.574 825.398 L 3100.159 856.814 L 3108.462 888.230 L 3116.473 919.646 L 3124.187 951.062 L 3131.594 982.478 L 3138.687 1013.894 L 3145.460 1045.310 L 3151.906 1076.726 L 3158.018 1108.142 L 3163.791 1139.557 L 3169.218 1170.973 L 3174.295 1202.389 L 3179.016 1233.805 L 3183.377 1265.221 L 3187.373 1296.637 L 3191.000 1328.053 L 3194.255 1359.469 L 3197.135 1390.885 L 3199.637 1422.301 L 3201.758 1453.717 L 3203.496 1485.133 L 3204.850 1516.549 L 3205.818 1547.964 L 3206.399 1579.380 L 3206.593 1610.796 L 3206.399 1642.212 L 3205.818 1673.628 L 3204.850 1705.044 L 3203.496 1736.460 L 3201.758 1767.876 L 3199.637 1799.292 L 3197.135 1830.708 L 3194.255 1862.124 L 3191.000 1893.540 L 3187.373 1924.956 L 3183.377 1956.372 L 3179.016 1987.787 L 3174.295 2019.203 L 3169.218 2050.619 L 3163.791 2082.035 L 3158.018 2113.451 L 3151.906 2144.867 L 3145.460 2176.283 L 3138.687 2207.699 L 3131.594 2239.115 L 3124.187 2270.531 L 3116.473 2301.947 L 3108.462 2333.363 L 3100.159 2364.779 L 3091.574 2396.194 L 3082.715 2427.610 L 3073.590 2459.026 L 3064.209 2490.442 L 3054.582 2521.858 L 3044.716 2553.274 L 3034.623 2584.690 L 3024.312 2616.106 L 3013.794 2647.522 L 3003.078 2678.938 L 2992.175 2710.354 L 2981.097 2741.770 L 2969.853 2773.186 L 2958.456 2804.602 L 2946.916 2836.017 L 2935.244 2867.433 L 2923.453 2898.849 L 2911.554 2930.265 L 2899.558 2961.681 L 2887.478 2993.097 L 2875.325 3024.513 L 2863.112 3055.929 L 2850.850 3087.345 L 2838.551 3118.761 L 2826.229 3150.177 L 2813.894 3181.593 L 2813.894 3181.593 L 2801.559 3150.177 L 2789.236 3118.761 L 2776.937 3087.345 L 2764.675 3055.929 L 2752.462 3024.513 L 2740.309 2993.097 L 2728.229 2961.681 L 2716.233 2930.265 L 2704.334 2898.849 L 2692.543 2867.433 L 2680.872 2836.017 L 2669.331 2804.602 L 2657.934 2773.186 L 2646.690 2741.770 L 2635.612 2710.354 L 2624.709 2678.938 L 2613.993 2647.522 L 2603.475 2616.106 L 2593.164 2584.690 L 2583.071 2553.274 L 2573.206 2521.858 L 2563.578 2490.442 L 2554.197 2459.026 L 2545.073 2427.610 L 2536.213 2396.194 L 2527.628 2364.779 L 2519.326 2333.363 L 2511.314 2301.947 L 2503.600 2270.531 L 2496.193 2239.115 L 2489.100 2207.699 L 2482.327 2176.283 L 2475.881 2144.867 L 2469.769 2113.451 L 2463.996 2082.035 L 2458.569 2050.619 L 2453.492 2019.203 L 2448.771 1987.787 L 2444.411 1956.372 L 2440.415 1924.956 L 2436.787 1893.540 L 2433.532 1862.124 L 2430.652 1830.708 L 2428.150 1799.292 L 2426.029 1767.876 L 2424.291 1736.460 L 2422.937 1705.044 L 2421.969 1673.628 L 2421.388 1642.212 L 2421.194 1610.796 L 2421.388 1579.380 L 2421.969 1547.964 L 2422.937 1516.549 L 2424.291 1485.133 L 2426.029 1453.717 L 2428.150 1422.301 L 2430.652 1390.885 L 2433.532 1359.469 L 2436.787 1328.053 L 2440.415 1296.637 L 2444.411 1265.221 L 2448.771 1233.805 L 2453.492 1202.389 L 2458.569 1170.973 L 2463.996 1139.557 L 2469.769 1108.142 L 2475.881 1076.726 L 2482.327 1045.310 L 2489.100 1013.894 L 2496.193 982.478 L 2503.600 951.062 L 2511.314 919.646 L 2519.326 888.230 L 2527.628 856.814 L 2536.213 825.398 L 2545.073 793.982 L 2554.197 762.566 L 2563.578 731.150 L 2573.206 699.734 L 2583.071 668.319 L 2593.164 636.903 L 2603.475 605.487 L 2613.993 574.071 L 2624.709 542.655 L 2635.612 511.239 L 2646.690 479.823 L 2657.934 448.407 L 2669.331 416.991 L 2680.872 385.575 L 2692.543 354.159 L 2704.334 322.743 L 2716.233 291.327 L 2728.229 259.911 L 2740.309 228.496 L 2752.462 197.080 L 2764.675 165.664 L 2776.937 134.248 L 2789.236 102.832 L 2801.559 71.416 L 2813.894 40.000 Z" fill="#ffe600" fill-opacity="0.35" stroke="#222" stroke-width="0.6"/>
  <text x="2813.8935718910693" y="1610.7963267948967" font-family="Helvetica,Arial,sans-serif" font-size="12" fill="#222" text-anchor="middle">gore 4/8</text>
  <path d="M 3614.292 40.000 L 3626.627 71.416 L 3638.950 102.832 L 3651.248 134.248 L 3663.510 165.664 L 3675.723 197.080 L 3687.876 228.496 L 3699.956 259.911 L 3711.952 291.327 L 3723.851 322.743 L 3735.642 354.159 L 3747.314 385.575 L 3758.854 416.991 L 3770.251 448.407 L 3781.495 479.823 L 3792.573 511.239 L 3803.476 542.655 L 3814.192 574.071 L 3824.710 605.487 L 3835.021 636.903 L 3845.114 668.319 L 3854.980 699.734 L 3864.608 731.150 L 3873.988 762.566 L 3883.113 793.982 L 3891.972 825.398 L 3900.557 856.814 L 3908.860 888.230 L 3916.872 919.646 L 3924.585 951.062 L 3931.992 982.478 L 3939.086 1013.894 L 3945.859 1045.310 L 3952.304 1076.726 L 3958.417 1108.142 L 3964.189 1139.557 L 3969.616 1170.973 L 3974.693 1202.389 L 3979.414 1233.805 L 3983.775 1265.221 L 3987.771 1296.637 L 3991.398 1328.053 L 3994.653 1359.469 L 3997.533 1390.885 L 4000.035 1422.301 L 4002.156 1453.717 L 4003.894 1485.133 L 4005.248 1516.549 L 4006.216 1547.964 L 4006.797 1579.380 L 4006.991 1610.796 L 4006.797 1642.212 L 4006.216 1673.628 L 4005.248 1705.044 L 4003.894 1736.460 L 4002.156 1767.876 L 4000.035 1799.292 L 3997.533 1830.708 L 3994.653 1862.124 L 3991.398 1893.540 L 3987.771 1924.956 L 3983.775 1956.372 L 3979.414 1987.787 L 3974.693 2019.203 L 3969.616 2050.619 L 3964.189 2082.035 L 3958.417 2113.451 L 3952.304 2144.867 L 3945.859 2176.283 L 3939.086 2207.699 L 3931.992 2239.115 L 3924.585 2270.531 L 3916.872 2301.947 L 3908.860 2333.363 L 3900.557 2364.779 L 3891.972 2396.194 L 3883.113 2427.610 L 3873.988 2459.026 L 3864.608 2490.442 L 3854.980 2521.858 L 3845.114 2553.274 L 3835.021 2584.690 L 3824.710 2616.106 L 3814.192 2647.522 L 3803.476 2678.938 L 3792.573 2710.354 L 3781.495 2741.770 L 3770.251 2773.186 L 3758.854 2804.602 L 3747.314 2836.017 L 3735.642 2867.433 L 3723.851 2898.849 L 3711.952 2930.265 L 3699.956 2961.681 L 3687.876 2993.097 L 3675.723 3024.513 L 3663.510 3055.929 L 3651.248 3087.345 L 3638.950 3118.761 L 3626.627 3150.177 L 3614.292 3181.593 L 3614.292 3181.593 L 3601.957 3150.177 L 3589.634 3118.761 L 3577.335 3087.345 L 3565.073 3055.929 L 3552.860 3024.513 L 3540.707 2993.097 L 3528.627 2961.681 L 3516.631 2930.265 L 3504.732 2898.849 L 3492.941 2867.433 L 3481.270 2836.017 L 3469.730 2804.602 L 3458.332 2773.186 L 3447.089 2741.770 L 3436.010 2710.354 L 3425.108 2678.938 L 3414.392 2647.522 L 3403.873 2616.106 L 3393.562 2584.690 L 3383.469 2553.274 L 3373.604 2521.858 L 3363.976 2490.442 L 3354.595 2459.026 L 3345.471 2427.610 L 3336.612 2396.194 L 3328.026 2364.779 L 3319.724 2333.363 L 3311.712 2301.947 L 3303.999 2270.531 L 3296.592 2239.115 L 3289.498 2207.699 L 3282.725 2176.283 L 3276.279 2144.867 L 3270.167 2113.451 L 3264.394 2082.035 L 3258.967 2050.619 L 3253.890 2019.203 L 3249.169 1987.787 L 3244.809 1956.372 L 3240.813 1924.956 L 3237.185 1893.540 L 3233.930 1862.124 L 3231.050 1830.708 L 3228.548 1799.292 L 3226.427 1767.876 L 3224.689 1736.460 L 3223.335 1705.044 L 3222.368 1673.628 L 3221.786 1642.212 L 3221.593 1610.796 L 3221.786 1579.380 L 3222.368 1547.964 L 3223.335 1516.549 L 3224.689 1485.133 L 3226.427 1453.717 L 3228.548 1422.301 L 3231.050 1390.885 L 3233.930 1359.469 L 3237.185 1328.053 L 3240.813 1296.637 L 3244.809 1265.221 L 3249.169 1233.805 L 3253.890 1202.389 L 3258.967 1170.973 L 3264.394 1139.557 L 3270.167 1108.142 L 3276.279 1076.726 L 3282.725 1045.310 L 3289.498 1013.894 L 3296.592 982.478 L 3303.999 951.062 L 3311.712 919.646 L 3319.724 888.230 L 3328.026 856.814 L 3336.612 825.398 L 3345.471 793.982 L 3354.595 762.566 L 3363.976 731.150 L 3373.604 699.734 L 3383.469 668.319 L 3393.562 636.903 L 3403.873 605.487 L 3414.392 574.071 L 3425.108 542.655 L 3436.010 511.239 L 3447.089 479.823 L 3458.332 448.407 L 3469.730 416.991 L 3481.270 385.575 L 3492.941 354.159 L 3504.732 322.743 L 3516.631 291.327 L 3528.627 259.911 L 3540.707 228.496 L 3552.860 197.080 L 3565.073 165.664 L 3577.335 134.248 L 3589.634 102.832 L 3601.957 71.416 L 3614.292 40.000 Z" fill="#ffe600" fill-opacity="0.35" stroke="#222" stroke-width="0.6"/>
  <text x="3614.2917352885174" y="1610.7963267948967" font-family="Helvetica,Arial,sans-serif" font-size="12" fill="#222" text-anchor="middle">gore 5/8</text>
  <path d="M 4414.690 40.000 L 4427.025 71.416 L 4439.348 102.832 L 4451.646 134.248 L 4463.908 165.664 L 4476.122 197.080 L 4488.274 228.496 L 4500.355 259.911 L 4512.350 291.327 L 4524.249 322.743 L 4536.041 354.159 L 4547.712 385.575 L 4559.252 416.991 L 4570.650 448.407 L 4581.893 479.823 L 4592.972 511.239 L 4603.874 542.655 L 4614.590 574.071 L 4625.109 605.487 L 4635.420 636.903 L 4645.513 668.319 L 4655.378 699.734 L 4665.006 731.150 L 4674.386 762.566 L 4683.511 793.982 L 4692.370 825.398 L 4700.955 856.814 L 4709.258 888.230 L 4717.270 919.646 L 4724.983 951.062 L 4732.390 982.478 L 4739.484 1013.894 L 4746.257 1045.310 L 4752.703 1076.726 L 4758.815 1108.142 L 4764.587 1139.557 L 4770.015 1170.973 L 4775.091 1202.389 L 4779.812 1233.805 L 4784.173 1265.221 L 4788.169 1296.637 L 4791.796 1328.053 L 4795.052 1359.469 L 4797.932 1390.885 L 4800.433 1422.301 L 4802.554 1453.717 L 4804.292 1485.133 L 4805.646 1516.549 L 4806.614 1547.964 L 4807.195 1579.380 L 4807.389 1610.796 L 4807.195 1642.212 L 4806.614 1673.628 L 4805.646 1705.044 L 4804.292 1736.460 L 4802.554 1767.876 L 4800.433 1799.292 L 4797.932 1830.708 L 4795.052 1862.124 L 4791.796 1893.540 L 4788.169 1924.956 L 4784.173 1956.372 L 4779.812 1987.787 L 4775.091 2019.203 L 4770.015 2050.619 L 4764.587 2082.035 L 4758.815 2113.451 L 4752.703 2144.867 L 4746.257 2176.283 L 4739.484 2207.699 L 4732.390 2239.115 L 4724.983 2270.531 L 4717.270 2301.947 L 4709.258 2333.363 L 4700.955 2364.779 L 4692.370 2396.194 L 4683.511 2427.610 L 4674.386 2459.026 L 4665.006 2490.442 L 4655.378 2521.858 L 4645.513 2553.274 L 4635.420 2584.690 L 4625.109 2616.106 L 4614.590 2647.522 L 4603.874 2678.938 L 4592.972 2710.354 L 4581.893 2741.770 L 4570.650 2773.186 L 4559.252 2804.602 L 4547.712 2836.017 L 4536.041 2867.433 L 4524.249 2898.849 L 4512.350 2930.265 L 4500.355 2961.681 L 4488.274 2993.097 L 4476.122 3024.513 L 4463.908 3055.929 L 4451.646 3087.345 L 4439.348 3118.761 L 4427.025 3150.177 L 4414.690 3181.593 L 4414.690 3181.593 L 4402.355 3150.177 L 4390.032 3118.761 L 4377.734 3087.345 L 4365.472 3055.929 L 4353.258 3024.513 L 4341.105 2993.097 L 4329.025 2961.681 L 4317.030 2930.265 L 4305.130 2898.849 L 4293.339 2867.433 L 4281.668 2836.017 L 4270.128 2804.602 L 4258.730 2773.186 L 4247.487 2741.770 L 4236.408 2710.354 L 4225.506 2678.938 L 4214.790 2647.522 L 4204.271 2616.106 L 4193.960 2584.690 L 4183.867 2553.274 L 4174.002 2521.858 L 4164.374 2490.442 L 4154.993 2459.026 L 4145.869 2427.610 L 4137.010 2396.194 L 4128.425 2364.779 L 4120.122 2333.363 L 4112.110 2301.947 L 4104.397 2270.531 L 4096.990 2239.115 L 4089.896 2207.699 L 4083.123 2176.283 L 4076.677 2144.867 L 4070.565 2113.451 L 4064.792 2082.035 L 4059.365 2050.619 L 4054.288 2019.203 L 4049.568 1987.787 L 4045.207 1956.372 L 4041.211 1924.956 L 4037.583 1893.540 L 4034.328 1862.124 L 4031.448 1830.708 L 4028.947 1799.292 L 4026.826 1767.876 L 4025.087 1736.460 L 4023.734 1705.044 L 4022.766 1673.628 L 4022.185 1642.212 L 4021.991 1610.796 L 4022.185 1579.380 L 4022.766 1547.964 L 4023.734 1516.549 L 4025.087 1485.133 L 4026.826 1453.717 L 4028.947 1422.301 L 4031.448 1390.885 L 4034.328 1359.469 L 4037.583 1328.053 L 4041.211 1296.637 L 4045.207 1265.221 L 4049.568 1233.805 L 4054.288 1202.389 L 4059.365 1170.973 L 4064.792 1139.557 L 4070.565 1108.142 L 4076.677 1076.726 L 4083.123 1045.310 L 4089.896 1013.894 L 4096.990 982.478 L 4104.397 951.062 L 4112.110 919.646 L 4120.122 888.230 L 4128.425 856.814 L 4137.010 825.398 L 4145.869 793.982 L 4154.993 762.566 L 4164.374 731.150 L 4174.002 699.734 L 4183.867 668.319 L 4193.960 636.903 L 4204.271 605.487 L 4214.790 574.071 L 4225.506 542.655 L 4236.408 511.239 L 4247.487 479.823 L 4258.730 448.407 L 4270.128 416.991 L 4281.668 385.575 L 4293.339 354.159 L 4305.130 322.743 L 4317.030 291.327 L 4329.025 259.911 L 4341.105 228.496 L 4353.258 197.080 L 4365.472 165.664 L 4377.734 134.248 L 4390.032 102.832 L 4402.355 71.416 L 4414.690 40.000 Z" fill="#ffe600" fill-opacity="0.35" stroke="#222" stroke-width="0.6"/>
  <text x="4414.689898685966" y="1610.7963267948967" font-family="Helvetica,Arial,sans-serif" font-size="12" fill="#222" text-anchor="middle">gore 6/8</text>
  <path d="M 5215.088 40.000 L 5227.423 71.416 L 5239.746 102.832 L 5252.044 134.248 L 5264.306 165.664 L 5276.520 197.080 L 5288.673 228.496 L 5300.753 259.911 L 5312.748 291.327 L 5324.648 322.743 L 5336.439 354.159 L 5348.110 385.575 L 5359.650 416.991 L 5371.048 448.407 L 5382.291 479.823 L 5393.370 511.239 L 5404.272 542.655 L 5414.988 574.071 L 5425.507 605.487 L 5435.818 636.903 L 5445.911 668.319 L 5455.776 699.734 L 5465.404 731.150 L 5474.785 762.566 L 5483.909 793.982 L 5492.768 825.398 L 5501.353 856.814 L 5509.656 888.230 L 5517.668 919.646 L 5525.381 951.062 L 5532.788 982.478 L 5539.882 1013.894 L 5546.655 1045.310 L 5553.101 1076.726 L 5559.213 1108.142 L 5564.986 1139.557 L 5570.413 1170.973 L 5575.489 1202.389 L 5580.210 1233.805 L 5584.571 1265.221 L 5588.567 1296.637 L 5592.195 1328.053 L 5595.450 1359.469 L 5598.330 1390.885 L 5600.831 1422.301 L 5602.952 1453.717 L 5604.691 1485.133 L 5606.044 1516.549 L 5607.012 1547.964 L 5607.593 1579.380 L 5607.787 1610.796 L 5607.593 1642.212 L 5607.012 1673.628 L 5606.044 1705.044 L 5604.691 1736.460 L 5602.952 1767.876 L 5600.831 1799.292 L 5598.330 1830.708 L 5595.450 1862.124 L 5592.195 1893.540 L 5588.567 1924.956 L 5584.571 1956.372 L 5580.210 1987.787 L 5575.489 2019.203 L 5570.413 2050.619 L 5564.986 2082.035 L 5559.213 2113.451 L 5553.101 2144.867 L 5546.655 2176.283 L 5539.882 2207.699 L 5532.788 2239.115 L 5525.381 2270.531 L 5517.668 2301.947 L 5509.656 2333.363 L 5501.353 2364.779 L 5492.768 2396.194 L 5483.909 2427.610 L 5474.785 2459.026 L 5465.404 2490.442 L 5455.776 2521.858 L 5445.911 2553.274 L 5435.818 2584.690 L 5425.507 2616.106 L 5414.988 2647.522 L 5404.272 2678.938 L 5393.370 2710.354 L 5382.291 2741.770 L 5371.048 2773.186 L 5359.650 2804.602 L 5348.110 2836.017 L 5336.439 2867.433 L 5324.648 2898.849 L 5312.748 2930.265 L 5300.753 2961.681 L 5288.673 2993.097 L 5276.520 3024.513 L 5264.306 3055.929 L 5252.044 3087.345 L 5239.746 3118.761 L 5227.423 3150.177 L 5215.088 3181.593 L 5215.088 3181.593 L 5202.753 3150.177 L 5190.430 3118.761 L 5178.132 3087.345 L 5165.870 3055.929 L 5153.656 3024.513 L 5141.504 2993.097 L 5129.423 2961.681 L 5117.428 2930.265 L 5105.529 2898.849 L 5093.737 2867.433 L 5082.066 2836.017 L 5070.526 2804.602 L 5059.128 2773.186 L 5047.885 2741.770 L 5036.806 2710.354 L 5025.904 2678.938 L 5015.188 2647.522 L 5004.669 2616.106 L 4994.358 2584.690 L 4984.265 2553.274 L 4974.400 2521.858 L 4964.772 2490.442 L 4955.391 2459.026 L 4946.267 2427.610 L 4937.408 2396.194 L 4928.823 2364.779 L 4920.520 2333.363 L 4912.508 2301.947 L 4904.795 2270.531 L 4897.388 2239.115 L 4890.294 2207.699 L 4883.521 2176.283 L 4877.075 2144.867 L 4870.963 2113.451 L 4865.191 2082.035 L 4859.763 2050.619 L 4854.687 2019.203 L 4849.966 1987.787 L 4845.605 1956.372 L 4841.609 1924.956 L 4837.982 1893.540 L 4834.726 1862.124 L 4831.846 1830.708 L 4829.345 1799.292 L 4827.224 1767.876 L 4825.486 1736.460 L 4824.132 1705.044 L 4823.164 1673.628 L 4822.583 1642.212 L 4822.389 1610.796 L 4822.583 1579.380 L 4823.164 1547.964 L 4824.132 1516.549 L 4825.486 1485.133 L 4827.224 1453.717 L 4829.345 1422.301 L 4831.846 1390.885 L 4834.726 1359.469 L 4837.982 1328.053 L 4841.609 1296.637 L 4845.605 1265.221 L 4849.966 1233.805 L 4854.687 1202.389 L 4859.763 1170.973 L 4865.191 1139.557 L 4870.963 1108.142 L 4877.075 1076.726 L 4883.521 1045.310 L 4890.294 1013.894 L 4897.388 982.478 L 4904.795 951.062 L 4912.508 919.646 L 4920.520 888.230 L 4928.823 856.814 L 4937.408 825.398 L 4946.267 793.982 L 4955.391 762.566 L 4964.772 731.150 L 4974.400 699.734 L 4984.265 668.319 L 4994.358 636.903 L 5004.669 605.487 L 5015.188 574.071 L 5025.904 542.655 L 5036.806 511.239 L 5047.885 479.823 L 5059.128 448.407 L 5070.526 416.991 L 5082.066 385.575 L 5093.737 354.159 L 5105.529 322.743 L 5117.428 291.327 L 5129.423 259.911 L 5141.504 228.496 L 5153.656 197.080 L 5165.870 165.664 L 5178.132 134.248 L 5190.430 102.832 L 5202.753 71.416 L 5215.088 40.000 Z" fill="#ffe600" fill-opacity="0.35" stroke="#222" stroke-width="0.6"/>
  <text x="5215.088062083415" y="1610.7963267948967" font-family="Helvetica,Arial,sans-serif" font-size="12" fill="#222" text-anchor="middle">gore 7/8</text>
  <path d="M 6015.486 40.000 L 6027.821 71.416 L 6040.144 102.832 L 6052.442 134.248 L 6064.704 165.664 L 6076.918 197.080 L 6089.071 228.496 L 6101.151 259.911 L 6113.147 291.327 L 6125.046 322.743 L 6136.837 354.159 L 6148.508 385.575 L 6160.048 416.991 L 6171.446 448.407 L 6182.689 479.823 L 6193.768 511.239 L 6204.670 542.655 L 6215.386 574.071 L 6225.905 605.487 L 6236.216 636.903 L 6246.309 668.319 L 6256.174 699.734 L 6265.802 731.150 L 6275.183 762.566 L 6284.307 793.982 L 6293.166 825.398 L 6301.752 856.814 L 6310.054 888.230 L 6318.066 919.646 L 6325.779 951.062 L 6333.186 982.478 L 6340.280 1013.894 L 6347.053 1045.310 L 6353.499 1076.726 L 6359.611 1108.142 L 6365.384 1139.557 L 6370.811 1170.973 L 6375.888 1202.389 L 6380.609 1233.805 L 6384.969 1265.221 L 6388.965 1296.637 L 6392.593 1328.053 L 6395.848 1359.469 L 6398.728 1390.885 L 6401.230 1422.301 L 6403.351 1453.717 L 6405.089 1485.133 L 6406.442 1516.549 L 6407.410 1547.964 L 6407.992 1579.380 L 6408.185 1610.796 L 6407.992 1642.212 L 6407.410 1673.628 L 6406.442 1705.044 L 6405.089 1736.460 L 6403.351 1767.876 L 6401.230 1799.292 L 6398.728 1830.708 L 6395.848 1862.124 L 6392.593 1893.540 L 6388.965 1924.956 L 6384.969 1956.372 L 6380.609 1987.787 L 6375.888 2019.203 L 6370.811 2050.619 L 6365.384 2082.035 L 6359.611 2113.451 L 6353.499 2144.867 L 6347.053 2176.283 L 6340.280 2207.699 L 6333.186 2239.115 L 6325.779 2270.531 L 6318.066 2301.947 L 6310.054 2333.363 L 6301.752 2364.779 L 6293.166 2396.194 L 6284.307 2427.610 L 6275.183 2459.026 L 6265.802 2490.442 L 6256.174 2521.858 L 6246.309 2553.274 L 6236.216 2584.690 L 6225.905 2616.106 L 6215.386 2647.522 L 6204.670 2678.938 L 6193.768 2710.354 L 6182.689 2741.770 L 6171.446 2773.186 L 6160.048 2804.602 L 6148.508 2836.017 L 6136.837 2867.433 L 6125.046 2898.849 L 6113.147 2930.265 L 6101.151 2961.681 L 6089.071 2993.097 L 6076.918 3024.513 L 6064.704 3055.929 L 6052.442 3087.345 L 6040.144 3118.761 L 6027.821 3150.177 L 6015.486 3181.593 L 6015.486 3181.593 L 6003.151 3150.177 L 5990.828 3118.761 L 5978.530 3087.345 L 5966.268 3055.929 L 5954.055 3024.513 L 5941.902 2993.097 L 5929.822 2961.681 L 5917.826 2930.265 L 5905.927 2898.849 L 5894.136 2867.433 L 5882.464 2836.017 L 5870.924 2804.602 L 5859.527 2773.186 L 5848.283 2741.770 L 5837.205 2710.354 L 5826.302 2678.938 L 5815.586 2647.522 L 5805.068 2616.106 L 5794.757 2584.690 L 5784.663 2553.274 L 5774.798 2521.858 L 5765.170 2490.442 L 5755.790 2459.026 L 5746.665 2427.610 L 5737.806 2396.194 L 5729.221 2364.779 L 5720.918 2333.363 L 5712.906 2301.947 L 5705.193 2270.531 L 5697.786 2239.115 L 5690.692 2207.699 L 5683.919 2176.283 L 5677.474 2144.867 L 5671.361 2113.451 L 5665.589 2082.035 L 5660.161 2050.619 L 5655.085 2019.203 L 5650.364 1987.787 L 5646.003 1956.372 L 5642.007 1924.956 L 5638.380 1893.540 L 5635.125 1862.124 L 5632.245 1830.708 L 5629.743 1799.292 L 5627.622 1767.876 L 5625.884 1736.460 L 5624.530 1705.044 L 5623.562 1673.628 L 5622.981 1642.212 L 5622.787 1610.796 L 5622.981 1579.380 L 5623.562 1547.964 L 5624.530 1516.549 L 5625.884 1485.133 L 5627.622 1453.717 L 5629.743 1422.301 L 5632.245 1390.885 L 5635.125 1359.469 L 5638.380 1328.053 L 5642.007 1296.637 L 5646.003 1265.221 L 5650.364 1233.805 L 5655.085 1202.389 L 5660.161 1170.973 L 5665.589 1139.557 L 5671.361 1108.142 L 5677.474 1076.726 L 5683.919 1045.310 L 5690.692 1013.894 L 5697.786 982.478 L 5705.193 951.062 L 5712.906 919.646 L 5720.918 888.230 L 5729.221 856.814 L 5737.806 825.398 L 5746.665 793.982 L 5755.790 762.566 L 5765.170 731.150 L 5774.798 699.734 L 5784.663 668.319 L 5794.757 636.903 L 5805.068 605.487 L 5815.586 574.071 L 5826.302 542.655 L 5837.205 511.239 L 5848.283 479.823 L 5859.527 448.407 L 5870.924 416.991 L 5882.464 385.575 L 5894.136 354.159 L 5905.927 322.743 L 5917.826 291.327 L 5929.822 259.911 L 5941.902 228.496 L 5954.055 197.080 L 5966.268 165.664 L 5978.530 134.248 L 5990.828 102.832 L 6003.151 71.416 L 6015.486 40.000 Z" fill="#ffe600" fill-opacity="0.35" stroke="#222" stroke-width="0.6"/>
  <text x="6015.486225480863" y="1610.7963267948967" font-family="Helvetica,Arial,sans-serif" font-size="12" fill="#222" text-anchor="middle">gore 8/8</text>
</svg>
